PathFileType	4	(X/Y/Z)	RBDS012\RBDS012runT45.trc
DataRate	CameraRate	NumFrames	NumMarkers	Units	OrigDataRate	OrigDataStartFrame	OrigNumFrames
150.000000	150.000000	4	33	mm	150.000000	1125	4500
Frame#	Time	L.ASIS			L.Heel.Bottom			L.Heel.Lateral			L.Heel.Top			L.Iliac.Crest			L.MT1			L.MT5			L.PSIS			L.Shank.Bottom.Lateral			L.Shank.Bottom.Medial			L.Shank.Top.Lateral			L.Shank.Top.Medial			L.Thigh.Bottom.Lateral			L.Thigh.Bottom.Medial			L.Thigh.Top.Lateral			L.Thigh.Top.Medial			R.ASIS			R.ASY			R.Heel.Bottom			R.Heel.Lateral			R.Heel.Top			R.Iliac.Crest			R.MT1			R.MT5			R.PSIS			R.Shank.Bottom.Lateral			R.Shank.Bottom.Medial			R.Shank.Top.Lateral			R.Shank.Top.Medial			R.Thigh.Bottom.Lateral			R.Thigh.Bottom.Medial			R.Thigh.Top.Lateral			R.Thigh.Top.Medial			
		X1	Y1	Z1	X2	Y2	Z2	X3	Y3	Z3	X4	Y4	Z4	X5	Y5	Z5	X6	Y6	Z6	X7	Y7	Z7	X8	Y8	Z8	X9	Y9	Z9	X10	Y10	Z10	X11	Y11	Z11	X12	Y12	Z12	X13	Y13	Z13	X14	Y14	Z14	X15	Y15	Z15	X16	Y16	Z16	X17	Y17	Z17	X18	Y18	Z18	X19	Y19	Z19	X20	Y20	Z20	X21	Y21	Z21	X22	Y22	Z22	X23	Y23	Z23	X24	Y24	Z24	X25	Y25	Z25	X26	Y26	Z26	X27	Y27	Z27	X28	Y28	Z28	X29	Y29	Z29	X30	Y30	Z30	X31	Y31	Z31	X32	Y32	Z32	X33	Y33	Z33	

1126	7.500000000000001	2275.842038218737	976.3348228910121	906.5399018635435	2317.846329168442	28.23065715241235	999.553744586528	2344.699292854036	42.71763018146164	951.5437708733472	2327.005541859183	76.83719086470704	1000.516123412116	2227.288626635198	1046.724393338066	868.4084328233762	2545.012949120071	48.87763293509138	1028.583916556663	2508.135837878441	50.0053940489482	912.0110150530822	2120.986153943752	1030.877688750689	1000.97494842637	2389.581912341874	164.2499925950875	932.7059411256115	2346.285471604545	166.8079187505006	966.4900010035718	2378.175098821984	241.0386302978733	914.3896327939113	2337.381470612852	245.0961583915883	948.8091779532542	2368.255245512	625.0853107012001	874.4958371063849	2311.752839917718	592.0921469204353	906.0801662593587	2302.259909950394	711.760732622146	855.463214700492	2250.62606074394	682.7976360843744	889.1559301787695	2304.194742273036	976.5763072163242	1169.343935742166	1662.923484172125	464.5957620516148	1076.842117196521	1683.98967826678	670.1765285420806	1077.708247425888	1685.629071389715	641.7512275457387	1114.561104314165	1724.102538703919	639.4330590071581	1080.96179233035	2279.435854469441	1053.619614010527	1192.952349266109	1612.794816550079	460.2757766056746	1019.556811665117	1605.174555886809	484.3629472373639	1137.184584146864	2139.882867065369	1033.945019973516	1106.358338038177	1783.387651664893	556.4664618419413	1137.983596306806	1797.853938828261	597.1175025820761	1110.226933567405	1863.956714709777	545.0048386020029	1161.643547974605	1874.640884946378	589.5354531352141	1134.290799035948	2136.948860209804	565.725474078562	1203.272650801153	2088.827158603789	576.9705166676589	1148.438005492012	2142.360960314963	673.9566123282581	1216.926617581829	2094.470593179724	685.4881508361715	1167.901880797076	
1127	7.506666666666667	2273.0241003255	971.5689270672534	904.4605740292765	2287.926048348828	29.77923543101176	999.9240689016328	2315.460984445732	44.00657279237566	952.157741584947	2299.224840646724	78.37836543280999	1001.619062950827	2224.975618586064	1040.073625271283	867.9667042755694	2517.077235467048	41.24145038407054	1030.165722514327	2480.21677866666	45.5507840155529	912.7626570613331	2118.305054101755	1025.541056634035	1002.112331246909	2369.356965254194	162.5445205490056	933.8706138749461	2325.426555018487	167.7093661495505	966.5628238181278	2362.654098284018	239.7820888121513	914.9640916982455	2321.381950462816	246.4236045140384	948.444227920764	2365.293383353931	622.0343739616593	873.4789376308078	2308.967450668124	589.2016313002312	905.5586593922898	2299.245062537134	708.7718047026099	854.6331599821459	2247.829324469797	679.9445609218028	888.7809004608685	2302.196388583895	970.1544774238879	1168.408153314582	1680.148263391264	471.7814617593627	1076.497254362674	1705.345304771744	676.3731379829005	1079.609688978832	1706.47678556598	647.3489804587333	1116.070209734362	1744.864062886271	644.7316023825443	1082.473087356242	2277.381689748755	1046.318816895247	1193.446491184513	1629.573570673087	468.5004764354083	1019.717043068838	1622.824935381982	491.3849732438222	1137.570203595086	2136.576620942686	1026.834821809935	1107.427569550618	1801.946334081833	559.2307128470273	1138.888194712554	1818.084046414871	599.5839207573208	1111.523214066859	1881.906095142403	544.6595526603596	1162.854455605994	1894.432251784157	588.9428928243905	1135.792001989751	2147.812470168146	557.5822623860138	1203.986783180692	2099.687513522201	566.5450272755218	1149.008803069901	2148.834510913862	666.0317180909824	1217.1273940384	2100.731773149467	675.3446702042502	1167.945488017867	
1128	7.513333333333334	2270.01907600982	967.2265181316944	902.2949824129835	2257.713455451841	31.33557679721891	1000.063163649831	2285.712439046064	45.41772037560415	952.4644327039658	2270.596252389401	79.94223287952587	1002.299469466992	2222.665952359165	1033.839919148654	867.5607460136997	2488.220307575304	35.6513364214307	1031.215045186432	2451.349318141352	42.64452581220993	913.0432142431761	2115.636359861525	1020.915493105618	1003.270318944191	2348.031191306222	161.5712127263309	934.7481001665591	2303.617709497885	169.3745744030622	966.3901487256901	2346.044927665218	239.0654035125446	915.2909523281053	2304.433688206448	248.2822083795989	947.8673871721248	2361.676616129226	619.0147195737352	872.2820743080126	2305.445775994954	586.4227430808761	904.8160213897286	2295.76090077796	705.9481094910152	853.6333705547374	2244.458026249339	677.322720721977	888.1681149324987	2299.864244148593	963.7933177566891	1167.361600477806	1698.605017913181	476.5959599372988	1076.298143297167	1726.050050241446	680.1379641742154	1081.649577192326	1727.015913100288	650.6087949658795	1117.724104303715	1765.247179958703	648.0331000029765	1084.017907423021	2274.843305015837	1039.10661619811	1193.93680136326	1647.553721282876	473.8303404994844	1020.194578567765	1641.717207517793	495.4366143109149	1138.183172698052	2133.065170240892	1020.36843975132	1108.46002855183	1821.041691606196	560.4722205680007	1139.85549497898	1838.594675278755	600.5712365489569	1112.866741415326	1900.425131015247	543.2912426439416	1164.05048235006	1914.51211792935	587.3674023781956	1137.302505605248	2159.44632241825	550.38745248949	1204.746818292858	2111.103712485529	556.939451966108	1149.94032172499	2155.869271278691	658.9023693579694	1217.372787995409	2107.399844663184	665.8381107884682	1168.273739438923	
1129	7.52	2266.924720597728	963.4099282930194	900.1278478578657	2227.48380113214	32.78742940097446	999.9933959029133	2255.750093622636	46.81328014233953	952.4867928445531	2241.405994749281	81.41822294853051	1002.565087367869	2220.327654621763	1028.308496281408	867.1861147010877	2458.757726331847	31.98577554578393	1031.777867912065	2421.858402191501	41.09943928940079	912.9387235940856	2113.034948910547	1017.114496812186	1004.35807825895	2325.69006664337	161.1445954316485	935.3340673850103	2280.980201136447	171.5442731422915	966.0094956762347	2328.306864094875	238.6861735995209	915.3922533692743	2286.5193533096	250.392042332703	947.1350618209248	2357.226665447176	615.9262891625942	870.9984995026739	2300.958202173948	583.7029363477106	903.8873224194805	2291.732810891282	703.2455793707218	852.5359868496996	2240.39122249543	674.9347191147882	887.3404533490426	2297.245857785822	957.7772139779493	1166.274475356877	1718.024199353447	478.9698993885032	1076.156541327461	1745.824790945277	681.5659167723555	1083.90351186815	1746.996378955088	651.5918752436659	1119.575636749778	1784.993749542831	649.4224514361456	1085.648034349914	2271.746217435877	1032.332781299358	1194.439972454868	1666.432757408099	476.275546227637	1020.858212449942	1661.610775205184	496.4695922771061	1138.920108961916	2129.448476282791	1014.77089716151	1109.346986783422	1840.474704679224	560.2357047012945	1140.869736441821	1859.135891330892	600.1767133717761	1114.261782283515	1919.385918069439	540.996447640492	1165.192995661057	1934.694021560576	584.9646283688065	1138.816459092664	2171.924051430377	544.3385289564566	1205.546256920526	2123.18426722876	548.3693027831438	1151.187312718032	2163.56745495835	652.7296996372864	1217.689779365187	2114.606161070808	657.147934167336	1168.905896755134	
